<?xml version="1.0" standalone="no"?><!DOCTYPE svg PUBLIC "-//W3C//DTD SVG 1.1//EN" "http://www.w3.org/Graphics/SVG/1.1/DTD/svg11.dtd"><svg t="1748331001319" class="icon" viewBox="0 0 1024 1024" version="1.1" xmlns="http://www.w3.org/2000/svg" p-id="1474" xmlns:xlink="http://www.w3.org/1999/xlink" width="32" height="32"><path d="M830.31168 436.48C810.41664 85.76 586.4704 56.32 507.7504 56.32 366.95552 60.8 202.9504 112 190.95168 436.48c-10.50624 284.16 36.48256 445.44 56.32384 584.96H775.68c14.07744-70.4 72.55168-269.056 54.63168-584.96z" fill="#1B1A1D" p-id="1475"></path><path d="M743.61344 409.03552c23.7312-3.27296 70.688 2.22592 68.66176 50.41024-2.53184 60.22912-73.91104 89.98016-96.7552 86.912l28.09344-137.32224z m-462.64576 1.28c-23.7312-3.27296-70.688 2.22592-68.66176 50.41024 2.53184 60.22912 73.91104 89.98016 96.75392 86.912l-28.09216-137.32224z" fill="#FFB2A6" p-id="1476"></path><path d="M447.36 736.64c18.02752-25.5872 19.71328-57.4208 17.53344-67.84h94.49856c-4.6528 27.33184 2.62272 43.12448 17.888 67.84-49.42976 39.25376-86.30528 34.89152-129.92 0z" fill="#FFB2A6" p-id="1477"></path><path d="M519.04 673.46048c-223.232-4.096-251.52128-153.59872-251.52-257.27872 0-138.88128 41.02528-280.34816 266.87872-274.55616 199.04 5.10464 221.44128 179.82464 221.44128 274.55616 0 108.16-24.96128 261.16608-236.8 257.27872z" fill="#FEBEB4" p-id="1478"></path><path d="M337.28 579.84c27.9232 0 50.56-22.6368 50.56-50.56S365.2032 478.72 337.28 478.72 286.72 501.3568 286.72 529.28s22.6368 50.56 50.56 50.56z m350.72 0c27.9232 0 50.56-22.6368 50.56-50.56S715.9232 478.72 688 478.72 637.44 501.3568 637.44 529.28s22.6368 50.56 50.56 50.56z" fill="#FFB4A8" p-id="1479"></path><path d="M566.61248 442.7328c9.06624-22.60864 71.552-47.7952 170.94016-26.65216-42.97856-6.62656-146.95424 14.4192-170.94016 26.65216z m-110.29632-1.12c-9.36192-22.48704-72.1728-46.8544-171.27552-24.41216 42.88896-7.18976 136.06784 7.78496 171.27552 24.41216z" fill="#000000" p-id="1480"></path><path d="M264.96 410.24c143.2-21.48864 216.96-104.30592 242.56-207.34592 30.08 113.92 176.29312 185.34016 248.32 206.06592C767.98592 306.16192 729.6 99.78496 500.48 101.77408 271.36 103.76448 247.27296 309.1008 264.96 410.24z" fill="#1B1A1D" p-id="1481"></path><path d="M281.87776 528.3328a1.28256 1.28256 0 0 0-1.80864 0.08576c-3.42016 3.7632-5.0944 8.50688-5.75872 12.91008a32.76032 32.76032 0 0 0-0.2816 7.1616c-0.2304-0.0064-0.4608-0.01024-0.69248-0.01024-12.72448 0-23.04 10.31552-23.04 23.04s10.31552 23.04 23.04 23.04 23.04-10.31552 23.04-23.04c0-11.61216-8.59008-21.21728-19.7632-22.80832a30.17088 30.17088 0 0 1 0.22912-7.00032c0.6144-4.0768 2.14144-8.29312 5.12128-11.56992a1.28256 1.28256 0 0 0-0.08576-1.80864z m-8.54144 61.1072c9.89696 0 17.92-8.02304 17.92-17.92s-8.02304-17.92-17.92-17.92-17.92 8.02304-17.92 17.92 8.02304 17.92 17.92 17.92z m472.10496-59.1872a1.28256 1.28256 0 0 1 1.80864 0.08576c3.42016 3.7632 5.09312 8.50688 5.75744 12.91008 0.384 2.54208 0.43776 5.00608 0.28288 7.1616 0.2304-0.0064 0.4608-0.01024 0.69248-0.01024 12.72448 0 23.04 10.31552 23.04 23.04s-10.31552 23.04-23.04 23.04c-12.72576 0-23.04-10.31552-23.04-23.04 0-11.61216 8.59008-21.21728 19.76192-22.80832a30.16576 30.16576 0 0 0-0.22784-7.00032c-0.61568-4.0768-2.14144-8.29312-5.12128-11.56992a1.28 1.28 0 0 1 0.08576-1.80864z m8.54144 61.1072c-9.89696 0-17.92-8.02304-17.92-17.92s8.02304-17.92 17.92-17.92 17.92 8.02304 17.92 17.92-8.02304 17.92-17.92 17.92z" fill="#FBF4DF" p-id="1482"></path><path d="M291.25632 571.52c0 9.89696-8.02304 17.92-17.92 17.92s-17.92-8.02304-17.92-17.92 8.02304-17.92 17.92-17.92 17.92 8.02304 17.92 17.92z m-0.0384 28.90752a4.00128 4.00128 0 1 0-5.77536-5.53984 4.00128 4.00128 0 0 0 5.77536 5.53984z m-11.91424 3.70944a4.00128 4.00128 0 1 0-3.97568-6.94656 4.00128 4.00128 0 0 0 3.97568 6.94656z m-14.37056-7.3856a4.00256 4.00256 0 1 1-6.94656 3.97824 4.00256 4.00256 0 0 1 6.94656-3.97824z m25.46816 6.76864c2.67136 12.62464 10.21568 37.54368 19.02336 36.2176 8.80896-1.3248-9.01248-24.6976-19.02336-36.2176z m-12.75264 3.35232c-1.00224 12.86528-0.8 38.90048 8.02432 40.1152 8.82304 1.216-1.67296-26.23744-8.02432-40.1152z m-15.2512 0.44672c-4.31872 12.16-10.90432 37.34912-2.7008 40.82048 8.20224 3.47136 5.21856-25.76768 2.7008-40.82048zM736.06272 573.44c0 9.89696 8.02304 17.92 17.92 17.92s17.92-8.02304 17.92-17.92-8.02304-17.92-17.92-17.92-17.92 8.02304-17.92 17.92z m0.03712 28.90752a4.00128 4.00128 0 1 1 5.77664-5.53856 4.00128 4.00128 0 0 1-5.77664 5.53856z m11.91424 3.70944a4.00256 4.00256 0 1 1 3.97952-6.94528 4.00256 4.00256 0 0 1-3.97952 6.94528z m14.37056-7.3856a4.00256 4.00256 0 1 0 6.94784 3.97696 4.00256 4.00256 0 0 0-6.94784-3.97696zM736.91776 605.44c-2.67136 12.62464-10.21568 37.54368-19.02464 36.2176-8.80768-1.3248 9.01248-24.6976 19.02464-36.2176z m12.75264 3.35232c1.00224 12.86528 0.8 38.90048-8.02432 40.1152-8.82432 1.216 1.67296-26.23744 8.02432-40.1152z m15.2512 0.44672c4.31744 12.16 10.90304 37.34912 2.7008 40.82048-8.20352 3.47136-5.21856-25.76768-2.7008-40.82048z" fill="#45FDFC" p-id="1483"></path><path d="M595.2 247.04128c0 47.78624-37.48352 87.68-85.12 87.68s-85.12-39.89376-85.12-87.68c0-47.78752 37.48352-87.68 85.12-87.68s85.12 39.89248 85.12 87.68z m-85.12 69.76c37.1136 0 67.2-31.23328 67.2-69.76 0-38.528-30.0864-69.76-67.2-69.76s-67.2 31.232-67.2 69.76c0 38.52672 30.0864 69.76 67.2 69.76z" fill="#FFE8A6" p-id="1484"></path><path d="M577.28 240.64128c0 38.52672-30.0864 69.76-67.2 69.76S442.88 279.168 442.88 240.64128c0-38.528 30.0864-69.76 67.2-69.76s67.2 31.232 67.2 69.76z" fill="#AA0702" p-id="1485"></path><path d="M577.28 236.16128c0 38.17344-30.0864 69.12-67.2 69.12s-67.2-30.94656-67.2-69.12c0-38.17472 30.0864-69.12 67.2-69.12s67.2 30.94528 67.2 69.12z" fill="#F71A19" p-id="1486"></path><path d="M418.56 170.88128c13.43104 0 24.32-10.88896 24.32-24.32s-10.88896-24.32-24.32-24.32-24.32 10.88896-24.32 24.32 10.88896 24.32 24.32 24.32z m186.88 3.84c-13.43104 0-24.32-10.88896-24.32-24.32s10.88896-24.32 24.32-24.32 24.32 10.88896 24.32 24.32-10.88896 24.32-24.32 24.32z m-279.04 43.52c0 13.43104-10.88896 24.32-24.32 24.32s-24.32-10.88896-24.32-24.32 10.88896-24.32 24.32-24.32 24.32 10.88896 24.32 24.32z m395.52 28.16c-13.43104 0-24.32-10.88896-24.32-24.32s10.88896-24.32 24.32-24.32 24.32 10.88896 24.32 24.32-10.88896 24.32-24.32 24.32z m-456.96 86.4c0 11.66464-9.45536 21.12-21.12 21.12s-21.12-9.45536-21.12-21.12 9.45536-21.12 21.12-21.12 21.12 9.45536 21.12 21.12z m515.2 24.96c-11.66464 0-21.12-9.45536-21.12-21.12s9.45536-21.12 21.12-21.12 21.12 9.45536 21.12 21.12-9.45536 21.12-21.12 21.12z" fill="#F71A19" p-id="1487"></path><path d="M513.85088 69.23264a5.76 5.76 0 1 1 1.78176-11.38176 5.76 5.76 0 0 1-1.78176 11.38176z m-6.08 12.61824a5.76 5.76 0 1 0 11.38176 1.78176 5.76 5.76 0 0 0-11.38176-1.78176z m4.8 32.18176a5.76 5.76 0 1 1 1.78176-11.38176 5.76 5.76 0 0 1-1.78176 11.38176z m-6.08 22.85824a5.76 5.76 0 1 0 11.38304 1.78048 5.76 5.76 0 0 0-11.38304-1.78048z m81.54624 62.31552c-2.4064 0-4.35712-2.04288-4.35712-4.5632 0-2.52032 1.95072-4.5632 4.35712-4.5632s4.35712 2.04288 4.35712 4.5632c0 2.52032-1.95072 4.5632-4.35712 4.5632z m16.18432 5.21472c-2.4064 0-4.35712-2.04288-4.35712-4.5632 0-2.51904 1.95072-4.56192 4.35712-4.56192s4.35712 2.04288 4.35712 4.56192c0 2.52032-1.95072 4.5632-4.35712 4.5632z m10.58176 3.26016c0 2.51904 1.95072 4.56192 4.35712 4.56192s4.35712-2.04288 4.35712-4.56192c0-2.52032-1.95072-4.5632-4.35712-4.5632s-4.35712 2.04288-4.35712 4.5632z m20.54272 13.68704c-2.4064 0-4.3584-2.04288-4.3584-4.56192 0-2.52032 1.952-4.5632 4.3584-4.5632s4.35712 2.04288 4.35712 4.5632c0 2.51904-1.95072 4.56192-4.35712 4.56192z m9.33632 4.56448c0 2.52032 1.95072 4.5632 4.35712 4.5632s4.35712-2.04288 4.35712-4.5632c0-2.51904-1.95072-4.56192-4.35712-4.56192s-4.35712 2.04288-4.35712 4.56192z m18.05184 14.99264c-2.4064 0-4.35712-2.04288-4.35712-4.5632 0-2.52032 1.95072-4.5632 4.35712-4.5632s4.35712 2.04288 4.35712 4.5632c0 2.52032-1.95072 4.5632-4.35712 4.5632z m9.33632 7.17056c0 2.52032 1.95072 4.5632 4.35712 4.5632s4.35712-2.04288 4.35712-4.5632c0-2.52032-1.95072-4.5632-4.35712-4.5632s-4.35712 2.04288-4.35712 4.5632z m19.296 18.90304c-2.4064 0-4.35712-2.04288-4.35712-4.5632 0-2.52032 1.95072-4.5632 4.35712-4.5632s4.35712 2.04288 4.35712 4.5632c0 2.52032-1.95072 4.5632-4.35712 4.5632z m8.09216 9.77792c0 2.52032 1.95072 4.5632 4.35712 4.5632s4.35712-2.04288 4.35712-4.5632c0-2.52032-1.95072-4.5632-4.35712-4.5632s-4.35712 2.04288-4.35712 4.5632z m15.56224 16.29696c-2.4064 0-4.35712-2.04288-4.35712-4.5632 0-2.52032 1.95072-4.5632 4.35712-4.5632s4.35712 2.04288 4.35712 4.5632c0 2.52032-1.95072 4.5632-4.35712 4.5632z m4.35712 7.16928c0 2.52032 1.95072 4.5632 4.35712 4.5632s4.35712-2.04288 4.35712-4.5632c0-2.52032-1.95072-4.5632-4.35712-4.5632s-4.35712 2.04288-4.35712 4.5632z m13.07136 18.90432c-2.4064 0-4.35712-2.04288-4.35712-4.5632 0-2.52032 1.95072-4.5632 4.35712-4.5632s4.35712 2.04288 4.35712 4.5632c0 2.52032-1.95072 4.5632-4.35712 4.5632z m1.86752 5.86624c0 2.51904 1.95072 4.56192 4.35712 4.56192s4.35712-2.04288 4.35712-4.56192c0-2.52032-1.95072-4.5632-4.35712-4.5632s-4.35712 2.04288-4.35712 4.5632z m13.07264 18.90432c-2.4064 0-4.35712-2.04288-4.35712-4.5632 0-2.52032 1.95072-4.5632 4.35712-4.5632s4.35712 2.04288 4.35712 4.5632c0 2.52032-1.95072 4.5632-4.35712 4.5632z m0.62208 13.6896c0 2.51904 1.95072 4.56192 4.35712 4.56192s4.3584-2.04288 4.3584-4.56192c0-2.52032-1.952-4.5632-4.3584-4.5632s-4.35712 2.04288-4.35712 4.5632z m10.58176 21.5104c-2.4064 0-4.35712-2.04288-4.35712-4.5632 0-2.52032 1.95072-4.5632 4.35712-4.5632s4.35712 2.04288 4.35712 4.5632c0 2.52032-1.95072 4.5632-4.35712 4.5632z m-1.86752 17.6c0 2.52032 1.95072 4.5632 4.35712 4.5632s4.35712-2.04288 4.35712-4.5632c0-2.52032-1.95072-4.5632-4.35712-4.5632s-4.35712 2.04288-4.35712 4.5632zM433.28 202.88a4.48 4.48 0 1 0 0-8.96 4.48 4.48 0 0 0 0 8.96z m-16.64 5.12a4.48 4.48 0 1 0 0-8.96 4.48 4.48 0 0 0 0 8.96zM405.76 211.2a4.48 4.48 0 1 1-8.96 0 4.48 4.48 0 0 1 8.96 0z m-21.12 13.44a4.48 4.48 0 1 0 0-8.96 4.48 4.48 0 0 0 0 8.96zM375.04 229.12a4.48 4.48 0 1 1-8.96 0 4.48 4.48 0 0 1 8.96 0z m-18.56 14.72a4.48 4.48 0 1 0 0-8.96 4.48 4.48 0 0 0 0 8.96zM346.88 250.88a4.48 4.48 0 1 1-8.96 0 4.48 4.48 0 0 1 8.96 0z m-19.84 18.56a4.48 4.48 0 1 0 0-8.96 4.48 4.48 0 0 0 0 8.96zM318.72 279.04a4.48 4.48 0 1 1-8.96 0 4.48 4.48 0 0 1 8.96 0z m-16 16a4.48 4.48 0 1 0 0-8.96 4.48 4.48 0 0 0 0 8.96zM298.24 302.08a4.48 4.48 0 1 1-8.96 0 4.48 4.48 0 0 1 8.96 0z m-13.44 18.56a4.48 4.48 0 1 0 0-8.96 4.48 4.48 0 0 0 0 8.96zM282.88 326.4a4.48 4.48 0 1 1-8.96 0 4.48 4.48 0 0 1 8.96 0z m-13.44 18.56a4.48 4.48 0 1 0 0-8.96 4.48 4.48 0 0 0 0 8.96zM268.8 358.4a4.48 4.48 0 1 1-8.96 0 4.48 4.48 0 0 1 8.96 0z m-10.88 21.12a4.48 4.48 0 1 0 0-8.96 4.48 4.48 0 0 0 0 8.96zM259.84 396.8a4.48 4.48 0 1 1-8.96 0 4.48 4.48 0 0 1 8.96 0z m212.48-238.72c9.1904 0 16.64-9.45536 16.64-21.12s-7.4496-21.12-16.64-21.12-16.64 9.45536-16.64 21.12 7.4496 21.12 16.64 21.12z m195.84 44.8c-13.43104 0-24.32-10.88896-24.32-24.32s10.88896-24.32 24.32-24.32 24.32 10.88896 24.32 24.32-10.88896 24.32-24.32 24.32zM570.88 136.96c0 11.66464-7.4496 21.12-16.64 21.12s-16.64-9.45536-16.64-21.12 7.4496-21.12 16.64-21.12 16.64 9.45536 16.64 21.12z m-213.76 62.08c13.43104 0 24.32-10.88896 24.32-24.32s-10.88896-24.32-24.32-24.32-24.32 10.88896-24.32 24.32 10.88896 24.32 24.32 24.32z m-67.84 74.24c0 13.43104-10.88896 24.32-24.32 24.32s-24.32-10.88896-24.32-24.32 10.88896-24.32 24.32-24.32 24.32 10.88896 24.32 24.32z m469.76 28.16c-13.43104 0-24.32-10.88896-24.32-24.32s10.88896-24.32 24.32-24.32 24.32 10.88896 24.32 24.32-10.88896 24.32-24.32 24.32z m-510.72 81.92c0 9.89696-8.02304 17.92-17.92 17.92s-17.92-8.02304-17.92-17.92 8.02304-17.92 17.92-17.92 17.92 8.02304 17.92 17.92z m545.28 21.76c-9.89696 0-17.92-8.02304-17.92-17.92s8.02304-17.92 17.92-17.92 17.92 8.02304 17.92 17.92-8.02304 17.92-17.92 17.92z m-202.15424-95.86048a5.76 5.76 0 1 1-1.8624-11.3664 5.76 5.76 0 0 1 1.8624 11.3664zM435.2 305.92128a5.76 5.76 0 1 1-11.52 0 5.76 5.76 0 0 1 11.52 0z m22.62016 21.7792a5.76 5.76 0 1 1-11.47904 0.95744 5.76 5.76 0 0 1 11.47904-0.95744z m29.25952 20.57344a5.76 5.76 0 1 0-1.78304-11.38048 5.76 5.76 0 0 0 1.78304 11.38048z m44.74496-6.58176a5.76 5.76 0 1 0 11.38048 1.78304 5.76 5.76 0 0 0-11.38048-1.78304z m-20.80128 11.70176a5.76 5.76 0 1 1 1.78304-11.38048 5.76 5.76 0 0 1-1.78304 11.38048z m55.05664-20.97152a5.76 5.76 0 1 0 11.50336 0.63872 5.76 5.76 0 0 0-11.50336-0.63872z m-140.6656-18.50496c-10.45504 15.3536-28.8256 48.02048-18.67136 55.85024 10.15296 7.83104 16.67712-33.9712 18.67136-55.85024z m23.31776 22.56384c-9.14176 16.17024-24.73472 50.25024-13.9648 57.2096 10.76864 6.96064 13.79712-35.23968 13.9648-57.2096z m34.71616 14.624c-7.95136 16.78848-21.04448 51.904-9.80224 58.06848 11.24224 6.16448 11.2192-36.14336 9.80224-58.06848z m56.8064 0c7.95264 16.78848 21.04576 51.904 9.80224 58.06848-11.24224 6.16448-11.2192-36.14336-9.80224-58.06848z m-28.35072 6.656c5.87648 20.78464 12.99456 59.50848 0.0448 58.89024-12.80768-0.61184-5.0752-37.50272-0.0448-58.89024z m63.50208-16.81152c9.5872 15.9104 26.11712 49.54496 15.54432 56.8-10.57152 7.25632-14.76736-34.84416-15.54432-56.8z m20.37376-30.13632c12.8 13.46176 36.2112 42.72768 27.45856 52.09728-8.75392 9.3696-21.95328-30.82752-27.45856-52.09728z" fill="#45FDFC" p-id="1488"></path><path d="M511.39072 175.09376c-42.25408 6.4-61.46944 49.54752-61.46944 75.75296-5.76128-20.44544 11.80544-81.38496 61.46944-75.75296z" fill="#FFFFFF" p-id="1489"></path><path d="M516.35712 748.36736c1.9136-2.74944 7.1424-7.02336 13.3504-12.09728 13.85344-11.32288 32.58496-26.6304 30.23616-37.89824 3.6416-2.41664 5.5104 4.32384 8.02688 13.40032 1.98656 7.16416 4.37632 15.78496 8.36096 22.50368 16.05504 9.59232 98.36288 67.99232 117.42848 117.09568 14.8672 38.29248 26.24 116.94848 30.08 171.98848h-417.28c-0.20224-36.26112 12.40576-121.42464 26.01856-171.98848 13.6128-50.56256 81.28768-99.26272 115.42144-117.29152l0.04608 0.03968c3.92832-6.69696 6.29632-15.2384 8.26752-22.34752 2.51648-9.07648 4.38528-15.81696 8.02688-13.40032-2.3488 11.26784 16.38272 26.57536 30.23616 37.89824 6.208 5.07392 11.4368 9.34784 13.3504 12.09728 1.94688 2.80064 3.08736 6.72896 3.68 11.08096 0.3584 0 0.71424-0.00128 1.07136-0.0064 0.59264-4.34944 1.73184-8.2752 3.67872-11.07456z" fill="#FFFFFF" p-id="1490"></path><path d="M377.6 1022.72c52.48-20.48 173.65376-186.02624 231.04-266.88 16 8.96 52.416 40.5248 77.44 78.72 24.32 37.12 36.69376 141.86624 39.68 188.16H377.6z" fill="#CB3E39" p-id="1491"></path><path d="M495.79136 916.2688c43.9424-54.01856 88.85888-116.84992 116.79872-158.22592l1.05984 0.71552c-27.95392 41.39776-72.89344 104.2624-116.86528 158.31808-21.98528 27.0272-43.73888 51.86432-63.01312 70.71744-9.63712 9.4272-18.66368 17.36704-26.7968 23.33952-8.12416 5.9648-15.40096 10.00064-21.536 11.56736l-0.31744-1.24032c5.89696-1.50528 13.01632-5.4272 21.09568-11.35872 8.06784-5.92384 17.04704-13.82016 26.65984-23.22304 19.22432-18.80448 40.94336-43.59936 62.91456-70.60992z m55.93984 3.42272c37.1968-48.71552 72.98304-103.69024 86.3872-140.39168l1.2032 0.43904c-13.47584 36.89856-49.3696 92.00512-86.5728 140.7296-18.60992 24.3712-37.5616 47.16672-54.2272 65.31456-16.64896 18.12736-31.06304 31.67104-40.5888 37.48352l-0.6656-1.09312c9.35296-5.70752 23.65952-19.12448 40.31104-37.25696 16.63488-18.11328 35.56224-40.87808 54.15296-65.22496zM617.6 761.6C567.04 840.74624 448.64 1000.96 403.2 1022.72h41.6c40.96-19.84 152.96-168.96 190.08-247.04l-17.28-14.08z" fill="#FEBD63" p-id="1492"></path><path d="M383.36 913.92l-6.4 109.44h6.4V913.92z" fill="#D9D9D9" p-id="1493"></path><path d="M648.96 913.28l6.4 109.44h-6.4v-109.44z" fill="#A4120C" p-id="1494"></path><path d="M432.64 574.72c21.71904 4.67072 80.54272 13.11872 142.08 9.55264-31.79904 12.67968-76.92288 23.05408-142.08-9.55264z" fill="#DE442C" p-id="1495"></path><path d="M500.48 541.44a9.6 5.12 0 1 0 19.2 0 9.6 5.12 0 1 0-19.2 0Z" fill="#DB8D81" p-id="1496"></path><path d="M711.02848 467.9616c-4.03712-14.57024-22.75712-32.1984-53.89824-28.63616-50.05568 5.728-74.29888 65.14432-65.10208 80.896 22.56896 38.65728 138.83392 19.32672 119.00032-52.25984z m-399.33696 0.33152c4.03712-14.57024 22.75712-32.1984 53.89824-28.63616 50.05696 5.72672 74.29888 65.14432 65.10208 80.896-22.56896 38.65728-138.83392 19.32672-119.00032-52.25984z" fill="#FB8572" p-id="1497"></path><path d="M652.96768 444.544c16.30848-1.84704 29.05984 2.31552 37.89824 8.72832l0.22656 0.1024 0.8832 0.59264 0.00768 0.00512c6.46016 4.34432 15.86304 10.66624 26.53824 4.43136-2.10048 3.59424-7.84128 8.1344-17.15072 6.06848 1.47072 2.41536 2.5408 4.86016 3.20128 7.22048 18.99008 67.86816-92.32768 86.19392-113.93664 49.54496-8.80512-14.93376 14.4064-71.264 62.33216-76.69376z m-283.21536 0.33152c-16.30848-1.84704-29.05984 2.31552-37.89824 8.72704l-0.22656 0.1024-0.89088 0.59904c-6.46016 4.34432-15.86304 10.66624-26.53824 4.43136 2.10048 3.59424 7.84128 8.1344 17.15072 6.06848-1.47072 2.41408-2.5408 4.85888-3.20128 7.2192-18.99008 67.86816 92.32768 86.1952 113.93664 49.54496 8.80512-14.93248-14.4064-71.26272-62.33216-76.69248z" fill="#000000" p-id="1498"></path><path d="M699.42656 478.04288c-3.6928-13.056-20.82048-28.85248-49.31072-25.66016-45.79584 5.13152-67.97568 58.37568-59.56224 72.49024 20.64896 34.64192 127.01952 17.31968 108.87296-46.83008z m-376.13312 0.33152c3.6928-13.056 20.82048-28.85248 49.31072-25.66016 45.79584 5.13152 67.97568 58.37568 59.56224 72.49024-20.64896 34.64064-127.01952 17.31968-108.87296-46.83008z" fill="#FFFFFF" p-id="1499"></path><path d="M635.97696 535.83616c-21.71264 0-39.31392-16.13568-39.31392-36.0384 0-19.90272 17.60128-36.0384 39.31392-36.0384s39.31392 16.13568 39.31392 36.0384c0 19.90272-17.60128 36.0384-39.31392 36.0384z m-249.23392 0.33024c21.71264 0 39.31392-16.1344 39.31392-36.03712s-17.60128-36.0384-39.31392-36.0384-39.31392 16.13568-39.31392 36.0384c0 19.90272 17.60128 36.03712 39.31392 36.03712z" fill="#000000" p-id="1500"></path></svg>